<?xml version="1.0" encoding="UTF-8"?>
<!DOCTYPE svg PUBLIC "-//W3C//DTD SVG 1.1//EN" "http://www.w3.org/Graphics/SVG/1.1/DTD/svg11.dtd">
<svg xmlns="http://www.w3.org/2000/svg" version="1.1" width="64px" height="64px" style="shape-rendering:geometricPrecision; text-rendering:geometricPrecision; image-rendering:optimizeQuality; fill-rule:evenodd; clip-rule:evenodd" xmlns:xlink="http://www.w3.org/1999/xlink">
<g><path style="opacity:1" fill="#6115e2" d="M 42.5,3.5 C 40.3037,3.59001 38.137,3.92335 36,4.5C 34.4495,3.94646 32.9495,3.27979 31.5,2.5C 29.0541,4.72771 26.3874,5.06104 23.5,3.5C 20.6835,4.95645 17.6835,5.95645 14.5,6.5C 15.1098,5.60895 15.4431,4.60895 15.5,3.5C 15.8333,3.5 16.1667,3.5 16.5,3.5C 16.4346,3.93822 16.6012,4.27155 17,4.5C 25.4411,-0.348647 33.9411,-0.681981 42.5,3.5 Z"/></g>
<g><path style="opacity:1" fill="#660ef9" d="M 42.5,3.5 C 41.4107,5.11709 39.744,5.95042 37.5,6C 38.0944,6.46434 38.7611,6.63101 39.5,6.5C 32.3644,6.93176 25.3644,7.09843 18.5,7C 21.47,8.15323 24.1367,9.8199 26.5,12C 23.7558,12.8035 21.0891,13.8035 18.5,15C 19.3802,16.3561 19.7135,17.8561 19.5,19.5C 18.5,19.5 17.5,19.5 16.5,19.5C 15.9493,21.8652 15.116,24.1985 14,26.5C 12.437,25.2748 11.2703,23.7748 10.5,22C 11.8418,18.9848 13.1752,15.9848 14.5,13C 13.376,12.7508 12.376,12.2508 11.5,11.5C 12.2599,9.63964 13.2599,7.97297 14.5,6.5C 17.6835,5.95645 20.6835,4.95645 23.5,3.5C 26.3874,5.06104 29.0541,4.72771 31.5,2.5C 32.9495,3.27979 34.4495,3.94646 36,4.5C 38.137,3.92335 40.3037,3.59001 42.5,3.5 Z"/></g>
<g><path style="opacity:0.059" fill="#38117a" d="M 24.5,-0.5 C 29.1667,-0.5 33.8333,-0.5 38.5,-0.5C 46.7795,1.47799 53.1128,6.14466 57.5,13.5C 54.333,10.502 50.9997,7.66863 47.5,5C 45.9751,3.99136 44.3084,3.49136 42.5,3.5C 33.9411,-0.681981 25.4411,-0.348647 17,4.5C 16.6012,4.27155 16.4346,3.93822 16.5,3.5C 18.9296,1.61854 21.5962,0.285203 24.5,-0.5 Z"/></g>
<g><path style="opacity:1" fill="#6512ee" d="M 42.5,3.5 C 44.3084,3.49136 45.9751,3.99136 47.5,5C 50.9997,7.66863 54.333,10.502 57.5,13.5C 58.6827,16.3815 59.6827,19.3815 60.5,22.5C 59.5,22.1667 58.8333,21.5 58.5,20.5C 57.4861,18.4261 56.4861,16.4261 55.5,14.5C 52.4956,14.5407 49.3289,14.2074 46,13.5C 44.6057,12.3867 43.439,11.0534 42.5,9.5C 40.3326,10.9542 38.3326,10.7875 36.5,9C 38.8333,8.66667 41.1667,8.33333 43.5,8C 42.0993,7.5899 40.766,7.0899 39.5,6.5C 38.7611,6.63101 38.0944,6.46434 37.5,6C 39.744,5.95042 41.4107,5.11709 42.5,3.5 Z"/></g>
<g><path style="opacity:1" fill="#670ff8" d="M 39.5,6.5 C 40.766,7.0899 42.0993,7.5899 43.5,8C 41.1667,8.33333 38.8333,8.66667 36.5,9C 38.3326,10.7875 40.3326,10.9542 42.5,9.5C 43.439,11.0534 44.6057,12.3867 46,13.5C 49.3289,14.2074 52.4956,14.5407 55.5,14.5C 55.7124,19.443 54.7124,20.1097 52.5,16.5C 51.394,18.2844 51.394,20.1178 52.5,22C 52.2409,23.2613 51.5742,24.2613 50.5,25C 48.9562,24.5134 47.2895,24.0134 45.5,23.5C 45.5,22.1667 45.5,20.8333 45.5,19.5C 43.8333,19.5 42.1667,19.5 40.5,19.5C 39.1932,18.8466 37.8599,18.1799 36.5,17.5C 35.5713,18.6888 35.238,20.0222 35.5,21.5C 32.7118,21.0769 30.7118,22.0769 29.5,24.5C 30.9905,25.2436 32.4905,25.9103 34,26.5C 35.049,24.8934 36.549,24.2267 38.5,24.5C 38.7947,26.7354 38.4614,28.7354 37.5,30.5C 36.8333,30.5 36.1667,30.5 35.5,30.5C 32.0381,29.5184 28.3714,29.185 24.5,29.5C 24.6641,26.8127 24.4974,24.146 24,21.5C 22.951,19.8934 21.451,19.2267 19.5,19.5C 19.7135,17.8561 19.3802,16.3561 18.5,15C 21.0891,13.8035 23.7558,12.8035 26.5,12C 24.1367,9.8199 21.47,8.15323 18.5,7C 25.3644,7.09843 32.3644,6.93176 39.5,6.5 Z"/></g>
<g><path style="opacity:0.671" fill="#41148a" d="M 15.5,3.5 C 15.4431,4.60895 15.1098,5.60895 14.5,6.5C 13.7611,6.36899 13.0944,6.53566 12.5,7C 9.12683,10.2922 6.12683,13.7922 3.5,17.5C 5.69288,11.3055 9.69288,6.63883 15.5,3.5 Z"/></g>
<g><path style="opacity:1" fill="#6c1eee" d="M 14.5,6.5 C 13.2599,7.97297 12.2599,9.63964 11.5,11.5C 12.376,12.2508 13.376,12.7508 14.5,13C 13.1752,15.9848 11.8418,18.9848 10.5,22C 11.2703,23.7748 12.437,25.2748 14,26.5C 15.116,24.1985 15.9493,21.8652 16.5,19.5C 17.5,19.5 18.5,19.5 19.5,19.5C 21.451,19.2267 22.951,19.8934 24,21.5C 24.4974,24.146 24.6641,26.8127 24.5,29.5C 28.3714,29.185 32.0381,29.5184 35.5,30.5C 36.1667,30.5 36.8333,30.5 37.5,30.5C 37.5,32.8333 37.5,35.1667 37.5,37.5C 33.2717,37.0132 29.105,36.3466 25,35.5C 24.5017,38.8168 24.335,42.1501 24.5,45.5C 25.5764,48.748 24.9097,49.0813 22.5,46.5C 21.8933,46.6236 21.56,46.9569 21.5,47.5C 19.9731,47.573 18.9731,46.9063 18.5,45.5C 17.5987,44.7095 16.9321,43.7095 16.5,42.5C 16.5,38.8333 16.5,35.1667 16.5,31.5C 15.5,31.5 14.5,31.5 13.5,31.5C 13.6567,30.1266 13.49,28.7932 13,27.5C 10.8639,29.4328 8.53057,31.0995 6,32.5C 5.51722,33.448 5.35055,34.448 5.5,35.5C 4.5,35.5 3.5,35.5 2.5,35.5C 2.35988,29.4638 2.69322,23.4638 3.5,17.5C 6.12683,13.7922 9.12683,10.2922 12.5,7C 13.0944,6.53566 13.7611,6.36899 14.5,6.5 Z"/></g>
<g><path style="opacity:1" fill="#660ff4" d="M 55.5,14.5 C 56.4861,16.4261 57.4861,18.4261 58.5,20.5C 54.8316,23.3396 54.4983,26.673 57.5,30.5C 56.8333,30.8333 56.1667,31.1667 55.5,31.5C 53.8303,30.0052 51.997,28.6718 50,27.5C 49.4456,29.6096 48.6123,31.6096 47.5,33.5C 47.8333,34.1667 48.1667,34.8333 48.5,35.5C 49.3857,34.675 49.719,33.675 49.5,32.5C 50.552,32.3505 51.552,32.5172 52.5,33C 50.6008,36.9966 48.6008,40.8299 46.5,44.5C 46.1667,44.5 45.8333,44.5 45.5,44.5C 45.5,37.5 45.5,30.5 45.5,23.5C 47.2895,24.0134 48.9562,24.5134 50.5,25C 51.5742,24.2613 52.2409,23.2613 52.5,22C 51.394,20.1178 51.394,18.2844 52.5,16.5C 54.7124,20.1097 55.7124,19.443 55.5,14.5 Z"/></g>
<g><path style="opacity:1" fill="#f1e2ff" d="M 40.5,20.5 C 41.5,20.5 42.5,20.5 43.5,20.5C 43.5,28.8333 43.5,37.1667 43.5,45.5C 42.5,45.5 41.5,45.5 40.5,45.5C 40.5,37.1667 40.5,28.8333 40.5,20.5 Z"/></g>
<g><path style="opacity:0.243" fill="#340c5f" d="M 57.5,13.5 C 60.0164,16.5344 62.0164,19.8677 63.5,23.5C 63.5,25.5 63.5,27.5 63.5,29.5C 63.1667,29.5 62.8333,29.5 62.5,29.5C 62.8294,26.7718 62.1628,24.4385 60.5,22.5C 59.6827,19.3815 58.6827,16.3815 57.5,13.5 Z"/></g>
<g><path style="opacity:0.663" fill="#31155c" d="M 1.5,20.5 C 1.70197,22.9496 1.36863,25.283 0.5,27.5C 0.166667,27.5 -0.166667,27.5 -0.5,27.5C -0.5,26.5 -0.5,25.5 -0.5,24.5C 0.166667,23.1667 0.833333,21.8333 1.5,20.5 Z"/></g>
<g><path style="opacity:1" fill="#f2e0ff" d="M 18.5,45.5 C 18.5,37.1667 18.5,28.8333 18.5,20.5C 19.5,20.5 20.5,20.5 21.5,20.5C 21.5,28.8333 21.5,37.1667 21.5,45.5C 20.5,45.5 19.5,45.5 18.5,45.5 Z"/></g>
<g><path style="opacity:1" fill="#5a1cc9" d="M 60.5,22.5 C 62.1628,24.4385 62.8294,26.7718 62.5,29.5C 62.5,30.8333 62.5,32.1667 62.5,33.5C 62.5905,36.1522 61.9238,38.4855 60.5,40.5C 60.5,34.5 60.5,28.5 60.5,22.5 Z"/></g>
<g><path style="opacity:1" fill="#e2c6f3" d="M 35.5,30.5 C 35.5,32.1667 35.5,33.8333 35.5,35.5C 32.5,35.5 29.5,35.5 26.5,35.5C 26.5,33.8333 26.5,32.1667 26.5,30.5C 29.5,30.5 32.5,30.5 35.5,30.5 Z"/></g>
<g><path style="opacity:1" fill="#660ff8" d="M 58.5,20.5 C 58.8333,21.5 59.5,22.1667 60.5,22.5C 60.5,28.5 60.5,34.5 60.5,40.5C 59.1875,45.1291 56.8542,49.1291 53.5,52.5C 51.5082,52.3285 49.8415,52.9951 48.5,54.5C 48.1667,54.1667 47.8333,53.8333 47.5,53.5C 48.8333,51.8333 50.1667,50.1667 51.5,48.5C 49.9846,46.8322 48.3179,45.4989 46.5,44.5C 48.6008,40.8299 50.6008,36.9966 52.5,33C 51.552,32.5172 50.552,32.3505 49.5,32.5C 49.719,33.675 49.3857,34.675 48.5,35.5C 48.1667,34.8333 47.8333,34.1667 47.5,33.5C 48.6123,31.6096 49.4456,29.6096 50,27.5C 51.997,28.6718 53.8303,30.0052 55.5,31.5C 56.1667,31.1667 56.8333,30.8333 57.5,30.5C 54.4983,26.673 54.8316,23.3396 58.5,20.5 Z"/></g>
<g><path style="opacity:1" fill="#660ff7" d="M 16.5,42.5 C 14.3379,42.1028 13.0046,40.7695 12.5,38.5C 11.6143,39.325 11.281,40.325 11.5,41.5C 9.87623,41.6399 8.70956,40.9733 8,39.5C 7.78997,41.0581 7.28997,42.3915 6.5,43.5C 3.64515,41.7186 2.31182,39.052 2.5,35.5C 3.5,35.5 4.5,35.5 5.5,35.5C 5.35055,34.448 5.51722,33.448 6,32.5C 8.53057,31.0995 10.8639,29.4328 13,27.5C 13.49,28.7932 13.6567,30.1266 13.5,31.5C 14.5,31.5 15.5,31.5 16.5,31.5C 16.5,35.1667 16.5,38.8333 16.5,42.5 Z"/></g>
<g><path style="opacity:1" fill="#660ff6" d="M 40.5,19.5 C 40.5,19.8333 40.5,20.1667 40.5,20.5C 39.6708,28.3228 39.1708,36.3228 39,44.5C 36.4438,45.2191 35.2771,46.8858 35.5,49.5C 32.5525,49.7771 29.7191,49.4438 27,48.5C 26.8333,48.1667 26.6667,47.8333 26.5,47.5C 27.6283,46.7379 28.7949,46.0712 30,45.5C 31.0113,46.3366 32.1779,46.67 33.5,46.5C 33.5,45.5 33.5,44.5 33.5,43.5C 30.8559,43.8399 28.5225,43.1733 26.5,41.5C 25.8281,42.9492 25.1614,44.2825 24.5,45.5C 24.335,42.1501 24.5017,38.8168 25,35.5C 29.105,36.3466 33.2717,37.0132 37.5,37.5C 37.5,35.1667 37.5,32.8333 37.5,30.5C 38.4614,28.7354 38.7947,26.7354 38.5,24.5C 36.549,24.2267 35.049,24.8934 34,26.5C 32.4905,25.9103 30.9905,25.2436 29.5,24.5C 30.7118,22.0769 32.7118,21.0769 35.5,21.5C 35.238,20.0222 35.5713,18.6888 36.5,17.5C 37.8599,18.1799 39.1932,18.8466 40.5,19.5 Z"/></g>
<g><path style="opacity:1" fill="#8b3ee3" d="M 40.5,20.5 C 40.5,20.1667 40.5,19.8333 40.5,19.5C 42.1667,19.5 43.8333,19.5 45.5,19.5C 45.5,20.8333 45.5,22.1667 45.5,23.5C 45.5,30.5 45.5,37.5 45.5,44.5C 45.5,45.8333 44.8333,46.5 43.5,46.5C 42.209,46.7373 41.209,46.404 40.5,45.5C 41.5,45.5 42.5,45.5 43.5,45.5C 43.5,37.1667 43.5,28.8333 43.5,20.5C 42.5,20.5 41.5,20.5 40.5,20.5 Z"/></g>
<g><path style="opacity:1" fill="#660ef9" d="M 16.5,42.5 C 16.9321,43.7095 17.5987,44.7095 18.5,45.5C 18.9731,46.9063 19.9731,47.573 21.5,47.5C 21.3893,48.1174 21.056,48.6174 20.5,49C 22.2556,49.2022 23.9223,49.7022 25.5,50.5C 19.7684,51.6373 19.435,53.1373 24.5,55C 20.8775,56.7178 17.2108,56.8845 13.5,55.5C 11.1673,52.9974 9.00068,50.3307 7,47.5C 6.50999,46.2068 6.34332,44.8734 6.5,43.5C 7.28997,42.3915 7.78997,41.0581 8,39.5C 8.70956,40.9733 9.87623,41.6399 11.5,41.5C 11.281,40.325 11.6143,39.325 12.5,38.5C 13.0046,40.7695 14.3379,42.1028 16.5,42.5 Z"/></g>
<g><path style="opacity:1" fill="#5c19cf" d="M 3.5,17.5 C 2.69322,23.4638 2.35988,29.4638 2.5,35.5C 2.31182,39.052 3.64515,41.7186 6.5,43.5C 6.34332,44.8734 6.50999,46.2068 7,47.5C 9.00068,50.3307 11.1673,52.9974 13.5,55.5C 5.90545,50.6677 1.57211,43.6677 0.5,34.5C 0.5,32.1667 0.5,29.8333 0.5,27.5C 1.36863,25.283 1.70197,22.9496 1.5,20.5C 1.93205,19.2905 2.59872,18.2905 3.5,17.5 Z"/></g>
<g><path style="opacity:1" fill="#6314ed" d="M 40.5,20.5 C 40.5,28.8333 40.5,37.1667 40.5,45.5C 41.209,46.404 42.209,46.7373 43.5,46.5C 40.2918,48.6931 36.9584,50.8598 33.5,53C 31.4132,52.7821 29.4132,52.9488 27.5,53.5C 28.0016,54.7164 28.3349,55.8831 28.5,57C 31.6693,57.9782 34.5027,57.4782 37,55.5C 38.5082,57.8384 40.6748,58.8384 43.5,58.5C 42.3998,59.5585 41.0664,60.3918 39.5,61C 34.8452,61.4992 30.1785,61.6658 25.5,61.5C 20.6332,61.0667 16.6332,59.0667 13.5,55.5C 17.2108,56.8845 20.8775,56.7178 24.5,55C 19.435,53.1373 19.7684,51.6373 25.5,50.5C 23.9223,49.7022 22.2556,49.2022 20.5,49C 21.056,48.6174 21.3893,48.1174 21.5,47.5C 21.56,46.9569 21.8933,46.6236 22.5,46.5C 24.9097,49.0813 25.5764,48.748 24.5,45.5C 25.1614,44.2825 25.8281,42.9492 26.5,41.5C 28.5225,43.1733 30.8559,43.8399 33.5,43.5C 33.5,44.5 33.5,45.5 33.5,46.5C 32.1779,46.67 31.0113,46.3366 30,45.5C 28.7949,46.0712 27.6283,46.7379 26.5,47.5C 26.6667,47.8333 26.8333,48.1667 27,48.5C 29.7191,49.4438 32.5525,49.7771 35.5,49.5C 35.2771,46.8858 36.4438,45.2191 39,44.5C 39.1708,36.3228 39.6708,28.3228 40.5,20.5 Z"/></g>
<g><path style="opacity:1" fill="#660ff7" d="M 45.5,44.5 C 45.8333,44.5 46.1667,44.5 46.5,44.5C 48.3179,45.4989 49.9846,46.8322 51.5,48.5C 50.1667,50.1667 48.8333,51.8333 47.5,53.5C 47.8333,53.8333 48.1667,54.1667 48.5,54.5C 49.8415,52.9951 51.5082,52.3285 53.5,52.5C 50.9385,55.7167 47.6052,57.7167 43.5,58.5C 40.6748,58.8384 38.5082,57.8384 37,55.5C 34.5027,57.4782 31.6693,57.9782 28.5,57C 28.3349,55.8831 28.0016,54.7164 27.5,53.5C 29.4132,52.9488 31.4132,52.7821 33.5,53C 36.9584,50.8598 40.2918,48.6931 43.5,46.5C 44.8333,46.5 45.5,45.8333 45.5,44.5 Z"/></g>
<g><path style="opacity:0.047" fill="#38106e" d="M -0.5,34.5 C -0.166667,34.5 0.166667,34.5 0.5,34.5C 1.57211,43.6677 5.90545,50.6677 13.5,55.5C 16.6332,59.0667 20.6332,61.0667 25.5,61.5C 27.1667,62.1667 28.8333,62.8333 30.5,63.5C 28.5,63.5 26.5,63.5 24.5,63.5C 10.7165,60.0502 2.38316,51.3836 -0.5,37.5C -0.5,36.5 -0.5,35.5 -0.5,34.5 Z"/></g>
<g><path style="opacity:0.012" fill="#421589" d="M 62.5,33.5 C 62.8333,33.5 63.1667,33.5 63.5,33.5C 63.5,35.1667 63.5,36.8333 63.5,38.5C 59.5,51.1667 51.1667,59.5 38.5,63.5C 35.8333,63.5 33.1667,63.5 30.5,63.5C 28.8333,62.8333 27.1667,62.1667 25.5,61.5C 30.1785,61.6658 34.8452,61.4992 39.5,61C 41.0664,60.3918 42.3998,59.5585 43.5,58.5C 47.6052,57.7167 50.9385,55.7167 53.5,52.5C 56.8542,49.1291 59.1875,45.1291 60.5,40.5C 61.9238,38.4855 62.5905,36.1522 62.5,33.5 Z"/></g>
</svg>
